<svg width="100" height="100" viewBox="0 0 100 100" fill="none" xmlns="http://www.w3.org/2000/svg">
<circle cx="50" cy="50" r="50" fill="#FF0909"/>
<path d="M66.668 31.1667H33.3346C31.0367 31.1667 29.168 33.0355 29.168 35.3334V60.3334C29.168 62.6313 31.0367 64.5001 33.3346 64.5001H39.5846V72.348L52.6617 64.5001H66.668C68.9659 64.5001 70.8346 62.6313 70.8346 60.3334V35.3334C70.8346 33.0355 68.9659 31.1667 66.668 31.1667ZM66.668 60.3334H51.5076L43.7513 64.9855V60.3334H33.3346V35.3334H66.668V60.3334Z" fill="white"/>
<path d="M39.582 41.5833H60.4154V45.7499H39.582V41.5833ZM39.582 49.9166H54.1654V54.0833H39.582V49.9166Z" fill="white"/>
</svg>
