<svg width="100" height="100" viewBox="0 0 100 100" fill="none" xmlns="http://www.w3.org/2000/svg">
<circle cx="50" cy="50" r="50" fill="#FF0909"/>
<path d="M50 52.0833C53.4518 52.0833 56.25 49.285 56.25 45.8333C56.25 42.3815 53.4518 39.5833 50 39.5833C46.5482 39.5833 43.75 42.3815 43.75 45.8333C43.75 49.285 46.5482 52.0833 50 52.0833Z" stroke="white" stroke-width="2" stroke-linecap="round" stroke-linejoin="round"/>
<path d="M50.0007 29.1666C45.5804 29.1666 41.3411 30.9226 38.2155 34.0482C35.0899 37.1738 33.334 41.413 33.334 45.8333C33.334 49.775 34.1715 52.3541 36.459 55.2083L50.0007 70.8333L63.5423 55.2083C65.8298 52.3541 66.6673 49.775 66.6673 45.8333C66.6673 41.413 64.9114 37.1738 61.7858 34.0482C58.6602 30.9226 54.4209 29.1666 50.0007 29.1666V29.1666Z" stroke="white" stroke-width="2" stroke-linecap="round" stroke-linejoin="round"/>
</svg>
