<svg width="44" height="41" viewBox="0 0 44 41" fill="none" xmlns="http://www.w3.org/2000/svg">
<path d="M40.6517 12.8457C38.3031 9.62303 35.0218 7.46971 31.4232 6.49803V6.50292C30.5882 5.57518 29.6458 4.72069 28.5911 3.95897C20.598 -1.85158 9.37728 -0.0791142 3.54232 7.91405C-1.15983 14.4082 -0.959636 23.1435 3.83529 29.3496L3.87435 35.8242C3.87435 35.9805 3.89876 36.1367 3.94759 36.2832C4.20638 37.1084 5.08529 37.5625 5.9056 37.3037L12.0872 35.3555C13.723 35.9365 15.4124 36.2685 17.0921 36.3613L17.0677 36.3808C21.4183 39.5498 27.1214 40.5019 32.3509 38.7734L38.557 40.7949C38.7132 40.8437 38.8743 40.873 39.0404 40.873C39.9046 40.873 40.6029 40.1748 40.6029 39.3105V32.7676C44.9046 26.9277 45.0169 18.8564 40.6517 12.8457ZM12.7708 31.8887L12.1849 31.6445L7.35091 33.1582L7.30208 28.0801L6.91146 27.6406C2.7806 22.6015 2.50716 15.3408 6.37435 10.0137C11.0814 3.55858 20.1048 2.1328 26.5404 6.791C32.9954 11.4834 34.4261 20.4922 29.763 26.9082C25.8519 32.2744 18.8499 34.2568 12.7708 31.8887ZM37.429 31.0586L37.0384 31.5469L37.0872 36.625L32.3021 35.0137L31.7161 35.2578C28.9818 36.2734 26.0667 36.3564 23.3665 35.5996L23.3568 35.5947C26.9652 34.4863 30.2367 32.2402 32.5951 29.0078C36.3255 23.8662 36.931 17.4062 34.763 11.8984L34.7923 11.918C35.9154 12.7236 36.9456 13.7295 37.8197 14.9453C41.3646 19.8086 41.1644 26.4297 37.429 31.0586Z" fill="#C20202"/>
</svg>
