<svg width="38" height="38" viewBox="0 0 38 38" fill="none" xmlns="http://www.w3.org/2000/svg">
<path d="M33.7992 21.1111V31.6667C33.7992 32.8278 32.8542 33.7778 31.6992 33.7778H6.49922C5.34422 33.7778 4.39922 32.8278 4.39922 31.6667V21.1111C4.39922 19.95 3.45422 19 2.29922 19C1.14422 19 0.199219 19.95 0.199219 21.1111V33.7778C0.199219 36.1 2.08922 38 4.39922 38H33.7992C36.1092 38 37.9992 36.1 37.9992 33.7778V21.1111C37.9992 19.95 37.0542 19 35.8992 19C34.7442 19 33.7992 19.95 33.7992 21.1111ZM21.1992 20.4144L25.1472 16.4456C25.3416 16.2501 25.5725 16.0951 25.8265 15.9893C26.0805 15.8835 26.3528 15.8291 26.6277 15.8291C26.9027 15.8291 27.1749 15.8835 27.429 15.9893C27.683 16.0951 27.9138 16.2501 28.1082 16.4456C28.3026 16.641 28.4569 16.873 28.5621 17.1284C28.6673 17.3838 28.7215 17.6575 28.7215 17.9339C28.7215 18.2103 28.6673 18.484 28.5621 18.7394C28.4569 18.9947 28.3026 19.2268 28.1082 19.4222L20.5692 27.0011C20.3749 27.1968 20.1442 27.3521 19.8901 27.458C19.6361 27.564 19.3638 27.6185 19.0887 27.6185C18.8137 27.6185 18.5414 27.564 18.2873 27.458C18.0333 27.3521 17.8025 27.1968 17.6082 27.0011L10.0692 19.4222C9.67657 19.0275 9.45598 18.4921 9.45598 17.9339C9.45598 17.3757 9.67657 16.8403 10.0692 16.4456C10.4619 16.0508 10.9944 15.8291 11.5497 15.8291C12.105 15.8291 12.6376 16.0508 13.0302 16.4456L16.9992 20.4144V2.11111C16.9992 0.95 17.9442 0 19.0992 0C20.2542 0 21.1992 0.95 21.1992 2.11111V20.4144Z" fill="#C20202"/>
</svg>
